<svg width="30" height="13" viewBox="0 0 30 13" fill="none" xmlns="http://www.w3.org/2000/svg">
<rect width="30" height="13" fill="#E5E5E5"/>
<g id="Desktop - 1" clip-path="url(#clip0_0_1)">
<rect width="1440" height="3421" transform="translate(-490 -667)" fill="white"/>
<g id="Hero Section" clip-path="url(#clip1_0_1)">
<g id="Section 1">
<rect id="Rectangle 1024" x="-490" y="-667" width="1440" height="880" fill="url(#paint0_linear_0_1)"/>
<g id="navigation">
<g id="Frame 1">
<path id="Arrow 1" d="M1 5.75C0.585786 5.75 0.25 6.08579 0.25 6.5C0.25 6.91421 0.585786 7.25 1 7.25V5.75ZM29.5303 7.03033C29.8232 6.73744 29.8232 6.26256 29.5303 5.96967L24.7574 1.1967C24.4645 0.903806 23.9896 0.903806 23.6967 1.1967C23.4038 1.48959 23.4038 1.96447 23.6967 2.25736L27.9393 6.5L23.6967 10.7426C23.4038 11.0355 23.4038 11.5104 23.6967 11.8033C23.9896 12.0962 24.4645 12.0962 24.7574 11.8033L29.5303 7.03033ZM1 7.25H29V5.75H1V7.25Z" fill="#347AE2"/>
<rect x="-156.5" y="-21.5" width="217" height="56" rx="14.5" stroke="#707884"/>
</g>
</g>
</g>
</g>
</g>
<defs>
<linearGradient id="paint0_linear_0_1" x1="1489" y1="-319" x2="-490" y2="-319" gradientUnits="userSpaceOnUse">
<stop stop-color="#F5F9FF"/>
<stop offset="1" stop-color="#F5F9FF" stop-opacity="0.38"/>
</linearGradient>
<clipPath id="clip0_0_1">
<rect width="1440" height="3421" fill="white" transform="translate(-490 -667)"/>
</clipPath>
<clipPath id="clip1_0_1">
<rect width="1440" height="880" fill="white" transform="translate(-490 -667)"/>
</clipPath>
</defs>
</svg>
